<svg t="1679996855363" class="icon" viewBox="0 0 1024 1024" version="1.1" xmlns="http://www.w3.org/2000/svg" p-id="2186" width="200" height="200"><path d="M381.397333 107.392v112.256h93.866667V107.392h61.226667v112.256h93.866666V107.392h61.226667v112.256h114.218667v106.112h110.933333V386.986667h-110.933333v93.866666h110.933333v61.226667h-110.933333v93.866667h110.933333v61.226666h-110.933333v107.136h-114.304v112.341334h-61.184v-112.341334h-93.866667v112.341334h-61.184v-112.341334h-93.866667v112.341334H320.213333v-112.341334H221.098667V697.173333H107.392v-61.184h113.664v-93.866666H107.392v-61.226667h113.664v-93.866667H107.392V325.802667h113.664V219.690667h99.114667V107.392z m363.136 173.482667H282.282667v462.250666H744.533333z m-93.866666 93.866666v274.474667H376.192V374.741333z m-61.226667 61.226667h-152.064v152.064h152.064z" p-id="2187"></path></svg>