<svg t="1679997194626" class="icon" viewBox="0 0 1024 1024" version="1.1" xmlns="http://www.w3.org/2000/svg" p-id="7171" width="200" height="200"><path d="M 501.333 853.333 c -17.7067 0 -32 -14.2933 -32 -32 v -128 c 0 -17.7067 14.2933 -32 32 -32 s 32 14.2933 32 32 v 128 c 0 17.7067 -14.2933 32 -32 32 Z" fill="#333303" p-id="7172"></path><path d="M 714.667 853.333 h -426.667 c -17.7067 0 -32 -14.2933 -32 -32 s 14.2933 -32 32 -32 h 426.667 c 17.7067 0 32 14.2933 32 32 s -14.2933 32 -32 32 Z M 812.587 123.52 c 8.74667 0 15.7867 7.04 15.7867 15.7867 v 493.227 c 0 8.74667 -7.04 15.7867 -15.7867 15.7867 H 191.36 c -8.74667 0 -15.7867 -7.04 -15.7867 -15.7867 V 139.307 c 0 -8.74667 7.04 -15.7867 15.7867 -15.7867 h 621.227 m 0 -64 H 191.36 a 79.7867 79.7867 0 0 0 -79.7867 79.7867 v 493.227 a 79.7867 79.7867 0 0 0 79.7867 79.7867 h 621.227 a 79.7867 79.7867 0 0 0 79.7867 -79.7867 V 139.307 c 0 -44.16 -35.6267 -79.7867 -79.7867 -79.7867 Z" fill="#333303" p-id="7173"></path><path d="M 738.133 216.747 c 4.69333 0 8.53333 3.84 8.53333 8.53333 V 546.133 c 0 4.69333 -3.84 8.53333 -8.53333 8.53333 H 266.027 c -4.69333 0 -8.53333 -3.84 -8.53333 -8.53333 V 225.493 c 0 -4.69333 3.84 -8.53333 8.53333 -8.53333 H 738.133 m 0 -42.88 H 266.027 a 51.2 51.2 0 0 0 -51.2 51.2 V 546.133 a 51.2 51.2 0 0 0 51.2 51.2 H 738.133 a 51.2 51.2 0 0 0 51.2 -51.2 V 225.493 a 51.4133 51.4133 0 0 0 -51.2 -51.4133 Z" fill="#333303" p-id="7174"></path></svg>